<svg id="svg" version="1.1" xmlns="http://www.w3.org/2000/svg" xmlns:xlink="http://www.w3.org/1999/xlink" width="400" height="400" viewBox="0, 0, 400,400"><g id="svgg"><path id="path0" d="M228.958 101.658 C 228.672 101.748,227.172 102.359,225.625 103.017 C 217.332 106.544,214.398 107.795,213.646 108.129 C 213.188 108.332,210.984 109.267,208.750 110.206 C 206.516 111.146,203.094 112.599,201.146 113.436 C 199.198 114.273,194.135 116.430,189.896 118.228 C 178.717 122.971,168.483 127.324,164.886 128.865 C 163.162 129.604,161.534 130.208,161.269 130.208 C 160.818 130.208,149.765 128.200,141.071 126.539 C 138.968 126.137,137.211 125.845,137.167 125.889 C 137.036 126.020,160.475 130.706,161.040 130.662 C 161.326 130.640,162.592 130.187,163.853 129.656 C 167.454 128.139,185.172 120.604,192.188 117.606 C 194.135 116.773,198.870 114.760,202.708 113.131 C 206.547 111.502,210.625 109.766,211.771 109.274 C 219.933 105.764,229.182 101.879,229.792 101.705 C 230.377 101.537,230.418 101.496,230.000 101.495 C 229.714 101.495,229.245 101.568,228.958 101.658 M252.601 115.220 C 247.217 117.510,241.078 120.121,238.958 121.022 C 236.839 121.923,226.340 126.385,215.627 130.937 L 196.151 139.215 179.012 135.690 C 169.586 133.751,161.951 132.243,162.046 132.338 C 162.171 132.463,195.093 139.375,195.562 139.375 C 195.596 139.375,195.625 140.406,195.625 141.667 C 195.625 143.582,195.573 143.958,195.307 143.958 C 195.121 143.958,194.938 144.217,194.865 144.583 C 194.707 145.373,196.706 145.698,178.229 141.883 C 166.905 139.546,162.126 138.638,161.979 138.796 C 161.839 138.946,161.843 138.979,161.992 138.897 C 162.113 138.829,162.582 138.863,163.033 138.972 C 166.843 139.887,194.553 145.417,194.899 145.330 C 195.327 145.223,198.179 144.016,224.479 132.812 C 231.010 130.030,241.322 125.638,247.393 123.052 C 256.596 119.133,258.458 118.271,258.592 117.870 C 258.710 117.516,259.257 117.171,260.678 116.557 L 262.604 115.725 262.664 113.558 C 262.697 112.366,262.649 111.315,262.557 111.224 C 262.465 111.132,257.985 112.930,252.601 115.220 M244.583 126.679 C 221.380 136.556,211.349 140.824,203.032 144.361 L 196.167 147.279 179.386 143.838 C 170.156 141.946,162.417 140.344,162.188 140.280 C 161.904 140.199,161.837 140.230,161.979 140.376 C 162.094 140.494,165.234 141.214,168.958 141.976 C 184.812 145.219,194.920 147.309,195.260 147.415 C 195.605 147.522,195.625 148.915,195.625 172.827 C 195.625 196.782,195.644 198.125,195.990 198.123 C 196.190 198.123,202.729 195.412,210.521 192.099 L 224.688 186.076 224.741 196.684 C 224.776 203.516,224.869 207.292,225.002 207.292 C 225.137 207.292,225.208 201.593,225.208 190.911 L 225.208 174.531 225.781 174.651 C 227.351 174.977,256.023 180.871,256.563 180.978 C 256.906 181.046,257.118 181.026,257.033 180.934 C 256.875 180.764,255.573 180.488,236.198 176.521 C 230.065 175.265,225.239 174.181,225.277 174.067 C 225.314 173.954,226.129 173.524,227.088 173.111 C 229.327 172.146,229.335 172.019,227.189 171.569 C 226.209 171.363,225.345 171.095,225.270 170.973 C 225.153 170.784,225.155 166.648,225.272 166.535 C 225.294 166.513,232.344 167.940,240.938 169.705 C 249.531 171.470,256.703 172.909,256.875 172.902 C 257.662 172.872,255.382 172.374,240.680 169.364 C 228.892 166.951,225.069 166.097,225.263 165.921 C 225.405 165.792,233.771 162.188,243.854 157.913 C 253.938 153.638,262.305 150.050,262.448 149.940 C 262.652 149.784,262.708 146.438,262.708 134.454 C 262.708 122.358,262.654 119.169,262.448 119.176 C 262.305 119.182,254.266 122.558,244.583 126.679 M99.198 121.719 L 99.228 124.063 99.380 121.918 C 99.463 120.739,99.566 119.747,99.609 119.714 C 99.652 119.682,103.719 120.487,108.646 121.505 C 130.881 126.096,131.432 126.203,131.541 125.919 C 131.602 125.759,131.536 125.688,131.380 125.748 C 131.234 125.804,124.020 124.393,115.350 122.612 C 106.679 120.832,99.491 119.375,99.376 119.375 C 99.246 119.375,99.178 120.269,99.198 121.719 M103.367 126.335 C 103.431 126.695,131.136 132.684,131.420 132.399 C 131.540 132.280,131.054 132.175,117.292 129.360 C 107.708 127.400,103.774 126.515,103.575 126.275 C 103.322 125.970,103.303 125.975,103.367 126.335 M99.167 141.342 C 99.167 148.955,99.237 155.227,99.323 155.279 C 99.409 155.332,99.500 149.184,99.525 141.617 C 99.550 134.051,99.598 127.833,99.631 127.800 C 99.681 127.749,109.608 129.762,127.411 133.433 C 130.912 134.155,131.629 134.268,131.424 134.063 C 131.295 133.934,100.031 127.500,99.532 127.500 C 99.187 127.500,99.167 128.289,99.167 141.342 M353.636 148.839 C 352.943 149.106,351.838 149.570,351.182 149.870 C 350.525 150.171,349.938 150.417,349.876 150.417 C 349.815 150.417,349.279 150.639,348.685 150.910 C 347.659 151.379,344.535 152.711,337.292 155.768 C 335.516 156.518,333.031 157.579,331.771 158.125 C 330.510 158.672,326.667 160.311,323.229 161.768 C 319.792 163.224,313.557 165.873,309.375 167.654 C 305.193 169.434,300.130 171.588,298.125 172.440 C 296.120 173.291,292.822 174.699,290.796 175.568 L 287.112 177.148 282.254 176.264 C 277.614 175.420,275.052 174.944,269.837 173.956 C 268.544 173.712,267.380 173.547,267.249 173.591 C 266.977 173.681,285.903 177.505,286.606 177.502 C 286.860 177.501,290.282 176.131,294.211 174.458 C 303.167 170.644,316.737 164.871,327.708 160.208 C 332.349 158.235,337.083 156.219,338.229 155.727 C 346.304 152.260,354.403 148.853,355.104 148.628 C 355.741 148.424,355.814 148.360,355.417 148.357 C 355.130 148.355,354.329 148.572,353.636 148.839 M375.833 163.041 C 369.245 165.846,361.464 169.158,358.542 170.400 C 355.620 171.643,349.104 174.415,344.063 176.560 C 339.021 178.705,331.939 181.715,328.326 183.249 L 321.757 186.038 305.514 182.695 C 286.401 178.761,287.418 178.961,287.638 179.172 C 287.734 179.264,295.172 180.851,304.167 182.697 C 313.161 184.544,320.685 186.105,320.885 186.167 C 321.483 186.349,321.433 190.833,320.833 190.833 C 320.530 190.833,320.417 190.972,320.417 191.342 C 320.417 192.058,320.273 192.090,318.639 191.744 C 313.691 190.696,287.838 185.417,287.654 185.417 C 286.897 185.417,289.232 185.922,303.967 188.949 L 320.330 192.309 330.425 188.007 C 335.978 185.640,343.427 182.465,346.979 180.950 C 350.531 179.435,360.338 175.260,368.772 171.672 C 381.918 166.080,384.134 165.077,384.293 164.641 C 384.434 164.256,384.933 163.944,386.354 163.354 L 388.229 162.575 388.288 160.246 C 388.333 158.454,388.285 157.919,388.080 157.928 C 387.933 157.935,382.422 160.235,375.833 163.041 M138.438 161.027 C 138.799 161.169,138.762 161.212,138.155 161.346 C 137.771 161.431,136.646 161.857,135.655 162.291 C 134.665 162.726,129.729 164.831,124.688 166.969 C 119.646 169.107,114.911 171.125,114.167 171.452 C 113.422 171.779,110.984 172.817,108.750 173.760 C 106.516 174.702,102.766 176.295,100.417 177.300 C 98.068 178.305,93.333 180.317,89.896 181.771 C 86.458 183.226,83.365 184.541,83.021 184.693 C 82.677 184.846,81.411 185.388,80.208 185.898 C 79.005 186.407,76.327 187.549,74.257 188.434 L 70.493 190.044 63.528 188.761 C 59.697 188.055,55.081 187.195,53.271 186.850 C 51.460 186.505,49.872 186.258,49.741 186.301 C 49.493 186.384,69.407 190.417,70.063 190.417 C 70.269 190.417,74.206 188.812,78.813 186.852 C 83.419 184.891,89.672 182.229,92.708 180.935 C 95.745 179.642,102.354 176.829,107.396 174.685 C 112.438 172.540,119.375 169.587,122.813 168.123 C 130.724 164.752,138.315 161.555,138.848 161.370 C 139.312 161.209,138.934 160.829,138.333 160.851 C 138.133 160.859,138.171 160.922,138.438 161.027 M374.896 171.499 C 367.677 174.576,358.443 178.509,354.375 180.238 C 350.307 181.967,344.823 184.298,342.188 185.420 C 339.552 186.541,333.877 188.954,329.575 190.781 L 321.755 194.104 314.471 192.603 C 310.465 191.777,302.969 190.241,297.813 189.189 C 292.656 188.137,288.227 187.188,287.969 187.080 C 287.663 186.952,287.500 186.957,287.500 187.094 C 287.500 187.377,287.153 187.293,294.688 188.827 C 319.411 193.860,321.005 194.212,321.128 194.669 C 321.192 194.908,321.246 206.331,321.247 220.052 C 321.250 240.918,321.296 245.000,321.533 245.000 C 321.763 245.000,333.985 239.845,359.792 228.863 C 361.224 228.254,365.443 226.462,369.167 224.882 C 372.891 223.302,378.703 220.831,382.083 219.390 L 388.229 216.771 388.279 191.466 C 388.306 177.549,388.259 166.104,388.175 166.032 C 388.090 165.961,382.115 168.421,374.896 171.499 M165.521 173.255 C 162.198 174.682,155.307 177.621,150.208 179.786 C 145.109 181.951,132.896 187.143,123.067 191.325 L 105.196 198.927 93.587 196.539 C 87.203 195.225,79.682 193.684,76.875 193.113 C 74.068 192.542,71.607 192.024,71.406 191.961 C 71.206 191.898,71.042 191.926,71.042 192.023 C 71.042 192.120,74.393 192.886,78.490 193.724 C 82.586 194.563,90.109 196.107,95.208 197.156 L 104.479 199.063 104.583 201.407 C 104.676 203.500,104.650 203.751,104.339 203.750 C 104.121 203.750,103.940 203.986,103.852 204.383 C 103.751 204.846,103.620 204.988,103.367 204.912 C 102.245 204.574,71.337 198.342,71.157 198.417 C 71.004 198.481,71.005 198.514,71.158 198.525 C 71.280 198.534,78.657 200.040,87.553 201.871 L 103.727 205.201 116.499 199.764 C 123.523 196.774,132.505 192.949,136.458 191.263 C 140.411 189.577,149.029 185.908,155.610 183.109 C 166.317 178.555,167.596 177.962,167.787 177.458 C 167.951 177.025,168.365 176.740,169.573 176.225 C 170.438 175.857,171.271 175.443,171.424 175.305 C 171.709 175.048,171.966 170.606,171.694 170.643 C 171.622 170.653,168.844 171.828,165.521 173.255 M228.962 173.160 C 228.959 173.411,229.261 173.572,230.052 173.742 C 230.654 173.872,236.161 175.007,242.292 176.264 C 248.422 177.522,254.269 178.729,255.286 178.947 C 256.303 179.165,257.053 179.267,256.953 179.175 C 256.853 179.083,250.595 177.741,243.047 176.194 C 234.317 174.403,229.259 173.277,229.144 173.096 C 229.002 172.871,228.964 172.885,228.962 173.160 M166.250 181.022 C 156.657 185.117,124.552 198.777,121.146 200.213 C 119.313 200.986,114.920 202.848,111.384 204.350 C 107.848 205.852,104.881 207.035,104.791 206.979 C 104.493 206.794,71.185 199.996,71.082 200.098 C 70.920 200.261,78.251 201.808,101.927 206.606 L 104.583 207.144 104.583 232.433 C 104.583 253.038,104.634 257.741,104.855 257.826 C 105.005 257.883,111.591 255.183,119.491 251.826 L 133.854 245.721 133.958 268.017 L 134.061 290.313 134.166 264.885 L 134.271 239.458 149.688 242.633 C 166.707 246.139,166.082 246.021,166.178 245.729 C 166.216 245.615,165.896 245.506,165.467 245.487 C 164.866 245.461,136.797 239.771,134.635 239.237 C 133.861 239.046,134.081 238.857,135.990 238.074 L 137.813 237.326 137.874 237.882 L 137.935 238.438 151.932 241.315 C 159.630 242.898,166.000 244.304,166.086 244.440 C 166.204 244.626,166.244 244.621,166.247 244.422 C 166.252 244.015,166.208 244.005,151.719 241.041 L 138.125 238.259 138.125 237.581 C 138.125 236.833,138.126 236.834,136.146 236.458 C 133.984 236.048,134.167 236.300,134.167 233.736 C 134.167 232.483,134.252 231.458,134.356 231.458 C 134.460 231.458,141.608 232.908,150.240 234.679 C 158.872 236.450,166.004 237.829,166.090 237.744 C 166.175 237.658,165.988 237.564,165.675 237.534 C 164.155 237.388,134.275 231.093,134.300 230.924 C 134.316 230.817,142.660 227.185,152.841 222.853 C 163.023 218.521,171.415 214.911,171.490 214.832 C 171.662 214.650,171.860 178.749,171.689 178.753 C 171.619 178.754,169.172 179.775,166.250 181.022 M8.378 181.615 L 8.422 184.063 8.489 181.698 C 8.554 179.376,8.564 179.335,9.017 179.444 C 12.655 180.317,40.307 185.817,40.432 185.692 C 40.526 185.598,40.350 185.501,40.041 185.478 C 39.732 185.454,32.635 184.024,24.271 182.301 C 15.906 180.577,8.898 179.167,8.698 179.167 C 8.369 179.167,8.338 179.405,8.378 181.615 M12.258 185.643 C 12.300 186.091,12.397 186.458,12.473 186.458 C 12.616 186.458,39.587 191.997,40.290 192.171 C 40.507 192.225,40.601 192.192,40.499 192.098 C 40.396 192.005,34.500 190.736,27.396 189.280 C 20.292 187.823,14.034 186.538,13.490 186.423 C 12.588 186.234,12.500 186.162,12.500 185.620 C 12.500 185.293,12.428 184.980,12.340 184.926 C 12.252 184.871,12.215 185.194,12.258 185.643 M8.420 187.367 C 8.371 187.498,8.355 198.995,8.385 212.917 L 8.439 238.229 8.490 212.865 C 8.531 192.736,8.595 187.501,8.802 187.505 C 8.945 187.507,16.094 188.955,24.688 190.722 C 33.281 192.489,40.382 193.866,40.466 193.782 C 40.551 193.698,40.457 193.618,40.258 193.603 C 40.059 193.587,33.708 192.304,26.146 190.751 C 18.583 189.198,11.522 187.748,10.453 187.529 C 9.057 187.243,8.485 187.197,8.420 187.367 M264.111 213.086 C 264.273 213.189,264.013 213.344,263.406 213.506 C 262.877 213.648,261.965 213.982,261.378 214.249 C 260.792 214.516,258.391 215.551,256.042 216.547 C 253.693 217.544,251.490 218.485,251.146 218.638 C 250.802 218.790,249.255 219.447,247.708 220.097 C 246.161 220.747,243.630 221.825,242.083 222.493 C 240.536 223.161,236.786 224.760,233.750 226.047 C 227.451 228.715,218.353 232.584,214.063 234.418 C 206.494 237.655,201.125 239.937,198.697 240.952 L 196.041 242.062 193.802 241.652 C 192.570 241.426,190.625 241.060,189.479 240.839 C 182.891 239.566,173.684 237.904,173.522 237.958 C 172.971 238.142,195.557 242.496,196.146 242.319 C 196.490 242.216,199.677 240.893,203.229 239.379 C 206.781 237.866,211.516 235.850,213.750 234.901 C 220.615 231.983,245.471 221.405,254.271 217.655 C 258.854 215.703,263.094 213.919,263.693 213.691 C 264.723 213.301,264.981 212.913,264.206 212.920 C 263.957 212.922,263.929 212.971,264.111 213.086 M291.875 224.983 C 271.634 233.597,238.298 247.768,233.466 249.814 C 231.877 250.486,230.506 250.993,230.419 250.939 C 230.332 250.885,225.210 249.804,219.037 248.537 C 212.863 247.270,205.336 245.722,202.308 245.097 C 199.281 244.472,196.760 244.004,196.705 244.058 C 196.547 244.217,196.452 244.196,213.686 247.731 L 230.184 251.115 230.248 253.475 C 230.305 255.550,230.271 255.834,229.971 255.834 C 229.779 255.834,229.571 256.063,229.498 256.354 C 229.322 257.054,230.609 257.267,212.650 253.575 C 195.013 249.949,196.129 250.086,196.520 251.598 C 196.576 251.814,196.629 251.686,196.642 251.302 C 196.674 250.425,195.006 250.163,212.947 253.859 C 221.581 255.637,228.833 257.108,229.063 257.127 C 229.292 257.147,231.917 256.124,234.896 254.854 C 237.875 253.585,244.109 250.931,248.750 248.958 C 253.391 246.984,261.922 243.354,267.708 240.891 C 294.489 229.490,293.221 230.051,293.342 229.543 C 293.464 229.031,293.735 228.858,295.885 227.922 L 297.292 227.309 297.292 225.009 C 297.292 223.744,297.268 222.711,297.240 222.715 C 297.211 222.719,294.797 223.739,291.875 224.983 M296.979 230.800 C 296.865 230.907,292.411 232.843,287.083 235.100 C 277.548 239.141,269.516 242.551,258.021 247.442 C 254.813 248.807,247.373 251.969,241.489 254.470 L 230.791 259.016 213.818 255.529 C 204.484 253.612,196.801 252.088,196.747 252.142 C 196.606 252.283,196.079 252.169,212.924 255.632 C 221.342 257.362,228.674 258.873,229.219 258.990 L 230.208 259.201 230.208 284.484 C 230.208 300.459,230.282 309.813,230.409 309.891 C 230.556 309.982,267.545 294.432,274.271 291.451 C 274.729 291.248,276.604 290.453,278.438 289.685 C 281.521 288.393,283.586 287.517,293.542 283.281 L 297.188 281.729 297.292 261.021 C 297.404 238.665,297.319 230.479,296.979 230.800 M51.771 234.375 C 51.508 234.488,51.470 234.554,51.667 234.554 C 51.839 234.554,52.167 234.473,52.396 234.375 C 52.658 234.262,52.697 234.196,52.500 234.196 C 52.328 234.196,52.000 234.277,51.771 234.375 M52.813 234.583 C 52.550 234.696,52.511 234.762,52.708 234.762 C 52.880 234.762,53.208 234.682,53.438 234.583 C 53.700 234.470,53.739 234.404,53.542 234.404 C 53.370 234.404,53.042 234.485,52.813 234.583 M53.854 234.792 C 53.592 234.905,53.553 234.971,53.750 234.971 C 53.922 234.971,54.250 234.890,54.479 234.792 C 54.742 234.679,54.780 234.613,54.583 234.613 C 54.411 234.613,54.083 234.693,53.854 234.792 M54.792 235.000 C 54.363 235.137,54.344 235.170,54.688 235.184 C 54.917 235.194,55.245 235.111,55.417 235.000 C 55.782 234.764,55.528 234.764,54.792 235.000 M55.833 235.208 C 55.404 235.346,55.386 235.378,55.729 235.393 C 55.958 235.402,56.286 235.319,56.458 235.208 C 56.823 234.972,56.570 234.972,55.833 235.208 M60.938 236.250 C 60.675 236.363,60.636 236.429,60.833 236.429 C 61.005 236.429,61.333 236.348,61.563 236.250 C 61.825 236.137,61.864 236.071,61.667 236.071 C 61.495 236.071,61.167 236.152,60.938 236.250 M61.979 236.458 C 61.717 236.571,61.678 236.637,61.875 236.637 C 62.047 236.637,62.375 236.557,62.604 236.458 C 62.867 236.345,62.905 236.279,62.708 236.279 C 62.536 236.279,62.208 236.360,61.979 236.458 M66.979 237.500 L 66.563 237.679 66.979 237.691 C 67.208 237.697,67.536 237.611,67.708 237.500 C 68.122 237.232,67.602 237.232,66.979 237.500 M68.021 237.708 L 67.604 237.887 68.021 237.899 C 68.250 237.905,68.578 237.819,68.750 237.708 C 69.164 237.441,68.644 237.441,68.021 237.708 M69.063 237.917 L 68.646 238.096 69.063 238.107 C 69.292 238.113,69.620 238.028,69.792 237.917 C 70.206 237.649,69.685 237.649,69.063 237.917 M180.729 287.083 C 180.467 287.196,180.428 287.262,180.625 287.262 C 180.797 287.262,181.125 287.182,181.354 287.083 C 181.617 286.970,181.655 286.904,181.458 286.904 C 181.286 286.904,180.958 286.985,180.729 287.083 M181.771 287.292 C 181.508 287.405,181.470 287.471,181.667 287.471 C 181.839 287.471,182.167 287.390,182.396 287.292 C 182.658 287.179,182.697 287.113,182.500 287.113 C 182.328 287.113,182.000 287.193,181.771 287.292 M183.750 287.708 C 183.321 287.846,183.303 287.878,183.646 287.893 C 183.875 287.902,184.203 287.819,184.375 287.708 C 184.740 287.472,184.487 287.472,183.750 287.708 M184.792 287.917 C 184.363 288.054,184.344 288.087,184.688 288.101 C 184.917 288.111,185.245 288.028,185.417 287.917 C 185.782 287.681,185.528 287.681,184.792 287.917 M185.833 288.125 C 185.404 288.262,185.386 288.295,185.729 288.309 C 185.958 288.319,186.286 288.236,186.458 288.125 C 186.823 287.889,186.570 287.889,185.833 288.125 M186.875 288.333 C 186.446 288.471,186.428 288.503,186.771 288.518 C 187.000 288.527,187.328 288.444,187.500 288.333 C 187.865 288.097,187.612 288.097,186.875 288.333 M187.813 288.542 C 187.550 288.655,187.511 288.721,187.708 288.721 C 187.880 288.721,188.208 288.640,188.438 288.542 C 188.700 288.429,188.739 288.363,188.542 288.363 C 188.370 288.363,188.042 288.443,187.813 288.542 M188.854 288.750 L 188.438 288.929 188.854 288.941 C 189.083 288.947,189.411 288.861,189.583 288.750 C 189.997 288.482,189.477 288.482,188.854 288.750 M189.896 288.958 C 189.633 289.071,189.595 289.137,189.792 289.137 C 189.964 289.137,190.292 289.057,190.521 288.958 C 190.783 288.845,190.822 288.779,190.625 288.779 C 190.453 288.779,190.125 288.860,189.896 288.958 M195.000 290.000 C 194.770 290.149,194.907 290.202,195.521 290.202 C 196.135 290.202,196.272 290.149,196.042 290.000 C 195.870 289.889,195.635 289.798,195.521 289.798 C 195.406 289.798,195.172 289.889,195.000 290.000 " stroke="none" fill="#907b5a" fill-rule="evenodd"></path><path id="path1" d="M214.063 108.877 C 194.785 117.103,191.163 118.647,174.502 125.737 C 162.293 130.933,161.356 131.297,160.752 131.084 C 160.396 130.958,154.760 129.769,148.229 128.441 C 141.698 127.114,135.391 125.826,134.214 125.581 C 132.524 125.229,132.020 125.189,131.818 125.390 C 131.341 125.867,131.345 148.846,131.821 149.317 C 132.386 149.874,160.404 155.575,161.202 155.294 L 161.771 155.094 161.875 143.438 L 161.979 131.782 195.104 117.663 L 228.229 103.545 229.427 103.658 C 230.694 103.777,230.921 103.513,230.499 102.413 C 230.310 101.921,231.008 101.646,214.063 108.877 M355.403 149.180 C 355.158 149.425,346.694 153.142,336.593 157.439 C 326.493 161.736,315.417 166.450,311.979 167.915 C 308.542 169.379,301.630 172.323,296.621 174.456 L 287.512 178.335 286.725 178.029 C 285.858 177.692,258.590 172.083,257.818 172.083 C 257.439 172.083,257.313 172.226,257.221 172.760 C 256.960 174.277,257.071 195.738,257.342 196.087 C 257.526 196.324,259.625 196.839,264.375 197.813 C 268.099 198.577,272.646 199.515,274.479 199.898 C 286.452 202.399,286.385 202.388,286.964 202.008 L 287.500 201.657 287.500 190.147 L 287.500 178.636 320.773 164.482 C 339.072 156.697,354.190 150.330,354.366 150.333 C 354.543 150.336,355.039 150.407,355.469 150.491 L 356.250 150.644 356.250 149.813 C 356.250 148.793,355.987 148.596,355.403 149.180 M138.987 161.858 C 138.837 161.950,138.719 162.109,138.725 162.211 C 138.731 162.313,123.463 168.895,104.796 176.838 L 70.856 191.280 70.167 190.959 C 69.044 190.434,41.188 184.819,40.885 185.056 C 40.503 185.354,40.506 208.808,40.888 209.125 C 41.496 209.630,69.815 215.266,70.338 214.986 L 70.833 214.721 70.845 205.746 C 70.851 200.810,70.847 195.693,70.835 194.375 C 70.820 192.696,70.895 191.879,71.084 191.646 C 71.597 191.012,137.633 163.100,138.279 163.244 C 138.595 163.314,139.006 163.413,139.192 163.462 C 139.476 163.538,139.514 163.410,139.430 162.662 C 139.311 161.609,139.331 161.645,138.987 161.858 M184.167 184.546 L 184.167 185.387 185.260 185.608 C 185.862 185.729,188.112 186.189,190.260 186.630 L 194.167 187.431 194.167 186.554 L 194.167 185.676 189.635 184.797 C 187.143 184.314,184.893 183.870,184.635 183.811 C 184.209 183.714,184.167 183.781,184.167 184.546 M186.667 189.271 L 186.667 192.083 186.148 192.083 L 185.628 192.083 186.402 193.646 C 187.330 195.522,187.284 195.514,188.214 193.983 C 189.093 192.537,189.091 192.548,188.490 192.462 C 188.032 192.397,188.019 192.327,187.963 189.427 L 187.905 186.458 187.286 186.458 L 186.667 186.458 186.667 189.271 M190.625 189.978 L 190.625 192.917 190.104 192.917 C 189.450 192.917,189.442 192.856,190.319 194.597 C 191.149 196.245,191.191 196.248,192.071 194.710 C 192.839 193.367,192.835 193.410,192.188 193.248 L 191.667 193.117 191.667 190.204 C 191.667 188.574,191.582 187.292,191.475 187.292 C 191.370 187.292,191.136 187.235,190.955 187.165 C 190.664 187.054,190.625 187.383,190.625 189.978 M264.375 213.958 C 264.097 214.138,264.097 214.161,264.375 214.170 C 264.907 214.186,265.053 214.123,230.232 228.940 L 196.401 243.335 195.753 243.009 C 194.982 242.620,166.722 236.816,166.443 236.989 C 166.328 237.060,166.250 241.973,166.250 249.079 L 166.250 261.051 166.719 261.259 C 168.301 261.963,195.512 267.277,195.976 266.973 L 196.458 266.657 196.458 255.125 L 196.458 243.593 197.458 243.163 C 234.972 227.025,263.271 215.205,264.098 215.329 L 265.000 215.464 265.000 214.607 C 265.000 213.718,264.903 213.617,264.375 213.958 M309.792 231.391 L 309.792 232.204 314.635 233.188 C 317.299 233.729,319.549 234.170,319.635 234.169 C 319.721 234.168,319.792 233.799,319.792 233.350 L 319.792 232.533 318.385 232.216 C 317.215 231.951,312.522 231.051,310.365 230.677 C 309.820 230.583,309.792 230.619,309.792 231.391 M40.763 232.865 C 40.469 233.347,40.537 246.667,40.835 246.951 C 41.018 247.125,47.051 248.458,55.475 250.185 L 69.805 253.123 71.361 252.470 C 73.154 251.718,73.253 251.551,72.031 251.347 C 70.797 251.141,70.840 251.381,70.837 244.688 L 70.833 238.646 70.365 238.605 C 70.107 238.583,63.568 237.249,55.833 235.642 C 41.822 232.730,40.943 232.568,40.763 232.865 M312.292 236.066 L 312.292 239.007 311.771 238.907 C 311.125 238.784,311.105 238.658,312.025 240.517 C 312.958 242.403,312.867 242.389,313.818 240.782 L 314.588 239.481 314.065 239.306 L 313.542 239.132 313.542 236.257 C 313.542 233.211,313.519 233.147,312.448 233.128 C 312.362 233.126,312.292 234.448,312.292 236.066 M316.250 236.877 L 316.250 239.825 315.613 239.685 L 314.976 239.545 315.824 241.231 C 316.835 243.243,316.670 243.205,317.618 241.645 C 318.392 240.371,318.379 240.013,317.558 240.003 C 317.372 240.001,317.287 239.198,317.245 237.031 C 317.189 234.131,317.177 234.061,316.719 233.996 C 316.252 233.930,316.250 233.939,316.250 236.877 M93.333 244.307 L 93.333 245.120 98.177 246.104 C 100.841 246.645,103.097 247.087,103.190 247.086 C 103.283 247.084,103.329 246.732,103.294 246.302 C 103.211 245.303,102.212 245.015,93.906 243.592 C 93.362 243.499,93.333 243.536,93.333 244.307 M95.833 248.970 L 95.833 251.927 95.209 251.802 L 94.584 251.677 95.419 253.339 C 96.417 255.323,96.254 255.287,97.201 253.728 C 97.975 252.454,97.962 252.097,97.141 252.087 C 96.955 252.084,96.871 251.281,96.829 249.115 C 96.772 246.215,96.760 246.144,96.302 246.079 C 95.835 246.013,95.833 246.022,95.833 248.970 M99.583 249.796 L 99.583 252.716 99.063 252.586 C 98.392 252.417,98.408 252.511,99.355 254.362 L 100.149 255.911 101.008 254.570 L 101.867 253.229 101.365 253.038 C 100.702 252.785,100.631 252.437,100.628 249.427 L 100.625 246.875 100.104 246.875 L 99.583 246.875 99.583 249.796 M166.532 284.744 C 166.363 284.852,166.272 286.923,166.221 291.868 L 166.149 298.840 166.668 299.110 C 167.232 299.404,194.328 304.999,195.198 305.002 C 195.767 305.003,198.540 303.942,198.541 303.722 C 198.542 303.559,197.757 303.340,197.158 303.336 C 196.481 303.332,196.458 303.120,196.458 296.656 C 196.458 291.370,196.420 290.653,196.143 290.759 C 195.970 290.826,195.712 290.785,195.570 290.669 C 195.428 290.553,189.031 289.180,181.354 287.617 C 173.677 286.055,167.255 284.735,167.083 284.685 C 166.911 284.634,166.663 284.661,166.532 284.744 M218.918 296.295 C 218.854 296.965,218.912 297.115,219.265 297.196 C 220.150 297.401,228.773 299.167,228.890 299.167 C 229.012 299.167,228.849 297.519,228.715 297.407 C 228.677 297.375,226.474 296.931,223.820 296.420 L 218.995 295.491 218.918 296.295 M221.412 300.990 L 221.354 303.854 220.771 303.786 L 220.187 303.717 221.033 305.400 C 222.043 307.408,221.866 307.366,222.790 305.816 C 223.571 304.504,223.595 304.167,222.904 304.167 C 222.523 304.167,222.500 303.997,222.500 301.146 L 222.500 298.125 221.985 298.125 L 221.470 298.125 221.412 300.990 M225.208 301.771 L 225.208 304.583 224.688 304.583 C 224.030 304.583,224.030 304.590,224.976 306.437 L 225.766 307.979 226.529 306.722 C 227.401 305.286,227.459 305.000,226.875 305.000 C 226.494 305.000,226.458 304.861,226.457 303.385 C 226.454 300.128,226.254 298.958,225.699 298.958 L 225.208 298.958 225.208 301.771 " stroke="none" fill="#181812" fill-rule="evenodd"></path><path id="path2" d="M132.646 104.863 C 106.939 115.822,99.464 119.089,99.833 119.202 C 102.737 120.089,131.342 125.650,131.548 125.367 C 131.679 125.189,141.533 120.899,153.445 115.835 C 182.385 103.533,188.542 100.915,193.281 98.896 C 195.486 97.956,197.291 97.141,197.290 97.083 C 197.290 96.981,166.247 90.581,166.042 90.640 C 165.984 90.657,150.956 97.057,132.646 104.863 M214.271 109.702 C 206.365 113.080,194.365 118.199,187.604 121.078 C 180.844 123.956,172.688 127.431,169.479 128.799 C 166.271 130.167,163.327 131.420,162.937 131.583 C 161.923 132.008,161.456 131.885,173.143 134.280 C 179.034 135.487,186.556 137.033,189.858 137.714 L 195.863 138.953 214.442 131.058 C 224.660 126.716,238.458 120.851,245.104 118.024 C 251.750 115.197,258.313 112.410,259.688 111.830 C 262.526 110.635,262.757 110.487,262.061 110.319 C 260.666 109.982,231.995 104.129,230.833 103.944 C 230.089 103.826,229.292 103.691,229.063 103.644 C 228.827 103.596,222.405 106.226,214.271 109.702 M258.712 118.143 C 258.639 118.622,260.932 117.615,227.917 131.668 C 218.005 135.887,206.521 140.783,202.396 142.548 L 194.896 145.757 193.646 145.486 C 192.958 145.336,185.740 143.850,177.604 142.183 C 169.469 140.516,162.641 139.100,162.432 139.036 C 162.117 138.940,162.064 139.021,162.120 139.512 C 162.182 140.056,162.290 140.125,163.438 140.355 C 164.125 140.493,171.578 142.025,180.000 143.760 C 188.422 145.494,195.500 146.914,195.729 146.916 C 195.958 146.918,199.005 145.702,202.500 144.213 C 205.995 142.724,211.948 140.191,215.729 138.583 C 219.510 136.976,225.229 134.542,228.438 133.175 C 231.646 131.809,236.333 129.815,238.854 128.744 C 259.967 119.779,262.722 118.574,262.365 118.464 C 261.999 118.350,259.016 117.708,258.855 117.708 C 258.813 117.708,258.749 117.904,258.712 118.143 M101.250 126.297 C 99.525 127.020,99.476 127.046,99.601 127.170 C 99.672 127.240,131.105 133.750,131.376 133.750 C 131.738 133.750,131.383 132.698,130.990 132.605 C 130.732 132.545,125.036 131.371,118.333 129.998 C 101.222 126.493,103.117 126.966,103.263 126.238 C 103.419 125.456,103.246 125.461,101.250 126.297 M277.260 143.612 C 269.394 146.964,262.831 149.803,262.677 149.921 C 262.522 150.039,260.708 150.849,258.646 151.721 C 256.583 152.593,248.474 156.041,240.625 159.384 C 232.776 162.728,226.120 165.557,225.833 165.673 L 225.313 165.883 225.833 166.062 C 226.120 166.161,231.651 167.325,238.125 168.649 C 244.599 169.974,251.475 171.387,253.406 171.790 C 256.578 172.453,256.939 172.492,257.159 172.192 C 257.292 172.009,259.463 170.983,261.982 169.910 C 264.501 168.838,270.359 166.347,275.000 164.375 C 279.641 162.402,287.844 158.914,293.229 156.624 C 298.615 154.333,307.099 150.725,312.083 148.606 C 323.009 143.961,323.074 143.932,322.813 143.832 C 322.398 143.674,292.205 137.500,291.888 137.508 C 291.709 137.513,285.126 140.260,277.260 143.612 M41.875 164.500 C 23.714 172.234,8.780 178.637,8.689 178.728 C 8.597 178.819,10.707 179.334,13.376 179.872 C 16.045 180.410,23.198 181.873,29.271 183.124 C 39.058 185.139,40.340 185.361,40.558 185.076 C 40.693 184.899,44.068 183.366,48.058 181.670 C 52.048 179.974,64.406 174.722,75.521 169.998 C 86.635 165.274,98.008 160.436,100.794 159.246 C 103.580 158.057,105.966 157.083,106.096 157.083 C 106.986 157.083,105.506 156.620,103.125 156.152 C 101.578 155.849,100.031 155.513,99.688 155.407 C 98.664 155.090,75.795 150.416,75.327 150.428 C 75.090 150.434,60.037 156.766,41.875 164.500 M351.563 151.541 C 350.188 152.145,335.328 158.483,318.542 165.624 C 286.929 179.072,287.792 178.699,287.934 178.829 C 288.070 178.953,320.887 185.666,321.354 185.665 C 321.583 185.665,328.755 182.693,337.292 179.062 C 364.538 167.470,377.684 161.882,382.657 159.778 C 388.285 157.397,388.352 157.364,387.917 157.207 C 387.285 156.981,356.111 150.657,355.104 150.551 C 354.178 150.454,353.786 150.564,351.563 151.541 M122.188 169.878 C 113.823 173.455,99.573 179.535,90.521 183.390 C 70.259 192.020,71.458 191.500,71.458 191.660 C 71.458 191.799,104.209 198.558,104.832 198.547 C 105.142 198.542,117.683 193.251,150.521 179.269 C 155.563 177.123,162.125 174.336,165.104 173.077 C 171.681 170.298,171.673 170.302,171.132 170.142 C 170.200 169.866,138.087 163.335,137.757 163.354 C 137.558 163.366,130.552 166.302,122.188 169.878 M384.375 164.960 C 384.375 165.354,384.987 165.085,354.583 178.036 C 348.224 180.745,337.990 185.107,331.841 187.731 C 325.692 190.354,320.559 192.500,320.433 192.500 C 320.308 192.500,312.921 191.000,304.019 189.167 C 295.116 187.334,287.755 185.912,287.659 186.007 C 287.414 186.252,287.682 186.840,288.092 186.959 C 288.438 187.059,311.945 191.889,318.229 193.152 L 321.563 193.821 336.146 187.617 C 344.167 184.205,354.760 179.699,359.688 177.605 C 364.615 175.510,372.771 172.037,377.813 169.886 C 382.854 167.735,387.307 165.857,387.708 165.713 C 388.558 165.406,388.457 165.348,386.288 164.899 C 384.382 164.504,384.375 164.504,384.375 164.960 M226.875 173.290 C 225.689 173.799,225.242 174.076,225.521 174.130 C 226.626 174.344,256.209 180.425,256.629 180.525 C 257.055 180.627,257.105 180.573,257.046 180.071 L 256.979 179.502 247.083 177.462 C 241.641 176.339,235.294 175.032,232.980 174.556 L 228.772 173.690 228.891 173.095 C 229.038 172.360,229.040 172.360,226.875 173.290 M167.745 177.826 C 167.817 178.232,167.842 178.221,145.833 187.590 C 135.300 192.074,112.784 201.667,107.322 204.000 L 103.914 205.454 91.593 202.917 C 84.816 201.521,77.491 200.013,75.315 199.565 C 70.635 198.601,71.042 198.630,71.042 199.254 C 71.042 199.686,71.182 199.787,72.031 199.969 C 72.950 200.166,94.357 204.563,101.671 206.057 L 104.905 206.718 116.463 201.812 C 122.820 199.114,130.974 195.651,134.583 194.115 C 138.193 192.580,147.959 188.427,156.286 184.886 C 164.612 181.345,171.388 178.388,171.343 178.315 C 171.297 178.241,170.672 178.068,169.953 177.930 C 169.234 177.792,168.428 177.626,168.162 177.563 C 167.777 177.471,167.692 177.525,167.745 177.826 M10.260 186.002 C 8.588 186.734,8.154 187.083,8.915 187.083 C 9.210 187.083,38.653 193.068,40.052 193.413 C 40.330 193.481,40.417 193.372,40.417 192.949 L 40.416 192.396 35.677 191.416 C 33.070 190.877,26.704 189.568,21.531 188.508 L 12.124 186.580 12.235 185.894 C 12.369 185.067,12.402 185.065,10.260 186.002 M186.941 208.261 C 179.285 211.518,172.365 214.504,171.563 214.896 C 170.760 215.287,166.917 216.960,163.021 218.614 C 143.246 227.007,134.673 230.677,134.536 230.806 C 134.453 230.884,141.484 232.409,150.161 234.194 C 165.105 237.268,165.954 237.420,166.250 237.071 C 166.422 236.869,171.906 234.435,178.438 231.662 C 192.507 225.689,215.661 215.844,224.583 212.041 C 228.078 210.551,231.172 209.237,231.458 209.121 C 231.745 209.004,231.885 208.873,231.771 208.830 C 231.424 208.699,225.299 207.405,213.125 204.891 C 206.766 203.578,201.405 202.466,201.212 202.421 C 201.019 202.375,194.597 205.003,186.941 208.261 M248.438 221.650 C 212.104 237.145,199.788 242.391,198.367 242.977 C 197.403 243.375,196.941 243.663,197.117 243.755 C 197.270 243.836,204.849 245.427,213.958 247.291 L 230.521 250.681 235.208 248.697 C 237.786 247.606,244.068 244.939,249.167 242.769 C 254.266 240.600,267.129 235.129,277.753 230.613 C 288.376 226.097,297.001 222.343,296.919 222.272 C 296.838 222.201,296.021 221.994,295.104 221.811 C 294.188 221.628,286.807 220.115,278.704 218.448 C 270.600 216.781,263.757 215.420,263.495 215.424 C 263.234 215.428,256.458 218.230,248.438 221.650 M293.370 229.883 C 293.439 230.246,292.751 230.548,262.604 243.379 C 257.448 245.573,247.899 249.644,241.385 252.426 L 229.540 257.483 213.397 254.158 C 195.341 250.440,196.667 250.665,196.667 251.316 C 196.667 251.789,197.034 251.874,213.621 255.284 L 230.574 258.768 232.735 257.828 C 233.924 257.310,242.302 253.741,251.354 249.897 C 291.686 232.766,296.875 230.543,296.875 230.397 C 296.875 230.253,296.012 230.030,294.099 229.678 C 293.420 229.553,293.313 229.583,293.370 229.883 M135.833 238.234 C 134.920 238.642,134.401 238.975,134.583 239.036 C 135.019 239.181,165.544 245.417,165.818 245.417 C 166.622 245.417,165.978 244.396,165.052 244.202 C 164.508 244.088,161.016 243.373,157.292 242.612 C 153.568 241.852,147.661 240.643,144.167 239.926 L 137.813 238.622 137.879 238.061 C 137.965 237.347,137.789 237.362,135.833 238.234 " stroke="none" fill="#cbbda5" fill-rule="evenodd"></path><path id="path3" d="M229.375 101.814 C 229.021 101.944,214.953 107.905,211.771 109.274 C 210.625 109.766,206.547 111.502,202.708 113.131 C 198.870 114.760,194.135 116.773,192.188 117.606 C 185.142 120.617,167.456 128.138,163.816 129.671 C 160.820 130.933,162.416 131.102,146.188 127.806 C 135.143 125.563,132.008 124.992,131.813 125.189 C 131.618 125.386,131.636 125.413,131.898 125.314 C 132.082 125.244,135.691 125.889,139.919 126.749 C 158.002 130.425,160.136 130.869,160.752 131.085 C 161.354 131.296,162.218 130.964,173.044 126.356 C 231.567 101.443,230.236 102.000,230.433 102.311 C 230.574 102.533,230.619 102.491,230.622 102.135 C 230.625 101.661,230.136 101.535,229.375 101.814 M99.476 120.705 C 99.405 121.291,99.376 122.380,99.413 123.125 L 99.479 124.479 101.370 124.868 C 103.178 125.240,103.269 125.285,103.453 125.904 L 103.646 126.552 117.500 129.413 C 125.120 130.987,131.371 132.279,131.391 132.283 C 131.411 132.288,131.458 132.450,131.495 132.644 C 131.532 132.838,131.563 131.394,131.563 129.435 C 131.563 127.477,131.516 125.944,131.458 126.029 C 131.381 126.145,110.217 121.908,100.584 119.848 L 99.606 119.639 99.476 120.705 M99.540 131.613 C 99.507 133.762,99.479 139.970,99.479 145.407 L 99.479 155.293 102.958 156.013 L 106.436 156.733 108.270 155.968 C 109.279 155.547,110.245 155.202,110.417 155.202 C 110.908 155.202,138.388 160.834,138.854 161.030 L 139.271 161.206 138.854 161.359 C 138.250 161.582,130.042 165.042,122.813 168.123 C 119.375 169.587,112.438 172.540,107.396 174.685 C 102.354 176.829,95.745 179.642,92.708 180.935 C 89.672 182.229,83.419 184.891,78.813 186.852 C 74.206 188.812,70.252 190.417,70.025 190.417 C 69.798 190.417,63.318 189.145,55.625 187.592 C 47.932 186.038,41.551 184.796,41.446 184.831 C 41.341 184.867,47.636 186.195,55.435 187.784 C 63.233 189.372,69.892 190.811,70.233 190.981 C 70.832 191.280,70.969 191.240,74.316 189.803 C 76.221 188.985,77.909 188.366,78.067 188.427 C 78.226 188.487,78.304 188.455,78.243 188.355 C 78.087 188.103,79.292 187.633,79.603 187.825 C 79.751 187.916,79.802 187.894,79.726 187.771 C 79.551 187.487,87.586 184.067,87.929 184.279 C 88.087 184.376,88.137 184.354,88.056 184.223 C 87.884 183.946,89.059 183.450,89.395 183.658 C 89.543 183.750,89.594 183.727,89.518 183.604 C 89.343 183.321,97.378 179.900,97.721 180.112 C 97.879 180.209,97.928 180.188,97.847 180.056 C 97.676 179.779,98.851 179.284,99.186 179.491 C 99.335 179.583,99.386 179.561,99.309 179.437 C 99.134 179.154,107.170 175.733,107.512 175.945 C 107.670 176.043,107.720 176.021,107.639 175.890 C 107.468 175.613,108.642 175.117,108.978 175.325 C 109.126 175.416,109.177 175.394,109.101 175.271 C 108.926 174.987,116.961 171.567,117.304 171.779 C 117.462 171.876,117.512 171.854,117.431 171.723 C 117.259 171.446,118.434 170.950,118.770 171.158 C 118.918 171.250,118.969 171.227,118.893 171.104 C 118.718 170.821,126.753 167.400,127.096 167.612 C 127.250 167.707,127.303 167.688,127.226 167.563 C 127.051 167.279,136.544 163.233,136.887 163.445 C 137.044 163.542,137.095 163.521,137.015 163.392 C 136.941 163.271,137.343 162.986,137.936 162.740 C 138.515 162.499,138.936 162.216,138.871 162.110 C 138.806 162.005,138.892 161.865,139.064 161.799 C 139.343 161.692,139.521 162.426,139.398 163.181 C 139.346 163.503,140.596 163.785,155.833 166.887 C 165.712 168.899,171.440 170.154,171.590 170.342 C 171.930 170.768,171.790 174.975,171.424 175.305 C 171.271 175.443,170.419 175.865,169.531 176.243 C 167.471 177.121,167.487 177.355,169.635 177.784 C 172.030 178.262,171.868 177.638,171.781 186.060 C 171.727 191.377,171.771 193.364,171.947 193.496 C 172.288 193.752,194.972 198.347,195.729 198.313 C 196.085 198.297,196.197 198.244,195.990 198.190 C 195.645 198.100,195.625 196.715,195.625 172.811 C 195.625 148.914,195.605 147.522,195.260 147.414 C 195.060 147.352,188.474 145.984,180.625 144.375 C 172.776 142.766,165.348 141.232,164.117 140.966 L 161.880 140.482 161.826 147.788 L 161.771 155.094 161.202 155.294 C 160.398 155.577,132.386 149.874,131.816 149.311 C 131.458 148.958,131.439 148.467,131.499 141.197 C 131.534 136.942,131.532 133.619,131.495 133.813 C 131.413 134.246,131.325 134.247,129.375 133.840 C 128.516 133.661,121.672 132.256,114.167 130.718 C 106.661 129.181,100.314 127.874,100.061 127.814 L 99.601 127.705 99.540 131.613 M161.875 135.480 L 161.876 138.646 162.448 138.691 C 162.763 138.716,170.081 140.192,178.710 141.972 C 196.824 145.709,194.708 145.367,194.865 144.583 C 194.938 144.217,195.121 143.958,195.307 143.958 C 195.573 143.958,195.625 143.583,195.625 141.684 L 195.625 139.410 194.635 139.199 C 194.091 139.083,186.755 137.572,178.333 135.842 C 169.911 134.111,162.763 132.609,162.448 132.504 L 161.875 132.313 161.875 135.480 M355.104 148.639 C 354.404 148.854,346.666 152.105,338.229 155.727 C 337.083 156.219,332.349 158.235,327.708 160.208 C 316.737 164.871,303.167 170.644,294.211 174.458 C 290.282 176.131,286.836 177.500,286.553 177.500 C 286.270 177.500,279.781 176.232,272.134 174.682 C 264.486 173.133,258.042 171.901,257.813 171.946 C 257.429 172.020,257.432 172.029,257.847 172.055 C 258.794 172.114,285.976 177.737,286.725 178.029 L 287.512 178.335 296.621 174.456 C 301.630 172.323,308.542 169.379,311.979 167.915 C 315.417 166.450,326.493 161.736,336.593 157.439 C 346.694 153.142,355.158 149.425,355.403 149.180 C 355.648 148.935,355.939 148.791,356.049 148.859 C 356.160 148.927,356.250 148.889,356.250 148.775 C 356.250 148.411,355.960 148.376,355.104 148.639 M225.186 168.059 C 225.174 168.955,225.150 169.875,225.133 170.104 C 225.069 170.973,225.368 171.187,227.180 171.567 C 228.725 171.891,228.959 171.997,228.962 172.376 C 228.968 173.294,229.169 173.348,243.047 176.192 C 250.595 177.738,256.865 179.120,256.979 179.262 C 257.120 179.437,257.188 178.391,257.188 176.030 C 257.188 174.110,257.126 172.639,257.051 172.761 C 256.942 172.937,227.652 167.145,225.573 166.537 C 225.249 166.442,225.206 166.612,225.186 168.059 M225.259 190.947 L 225.313 207.364 228.697 208.066 L 232.081 208.769 233.785 208.030 C 234.723 207.624,235.731 207.289,236.026 207.286 C 236.707 207.278,264.422 212.933,264.644 213.125 C 264.735 213.204,264.313 213.456,263.707 213.686 C 263.100 213.916,258.854 215.703,254.271 217.655 C 245.471 221.405,220.615 231.983,213.750 234.901 C 211.516 235.850,206.781 237.866,203.229 239.380 C 199.677 240.894,196.480 242.216,196.124 242.318 C 195.598 242.468,172.810 238.104,167.084 236.755 C 166.798 236.688,166.626 236.696,166.703 236.772 C 166.780 236.849,173.202 238.210,180.973 239.797 C 188.745 241.384,195.398 242.830,195.756 243.011 C 196.401 243.335,196.455 243.319,200.325 241.661 C 202.479 240.739,204.370 240.033,204.527 240.094 C 204.684 240.154,204.763 240.122,204.701 240.022 C 204.545 239.769,205.750 239.299,206.061 239.491 C 206.210 239.583,206.261 239.561,206.184 239.437 C 206.009 239.154,214.045 235.733,214.387 235.945 C 214.545 236.043,214.595 236.021,214.514 235.890 C 214.343 235.613,215.517 235.117,215.853 235.325 C 216.001 235.416,216.052 235.394,215.976 235.271 C 215.801 234.987,223.836 231.567,224.179 231.779 C 224.337 231.876,224.387 231.854,224.306 231.723 C 224.134 231.446,225.309 230.950,225.645 231.158 C 225.793 231.250,225.844 231.227,225.768 231.104 C 225.593 230.821,233.628 227.400,233.971 227.612 C 234.129 227.709,234.178 227.688,234.097 227.556 C 233.926 227.279,235.101 226.784,235.436 226.991 C 235.585 227.083,235.636 227.061,235.559 226.937 C 235.384 226.654,243.420 223.233,243.762 223.445 C 243.920 223.543,243.970 223.521,243.889 223.390 C 243.718 223.113,244.892 222.617,245.228 222.825 C 245.376 222.916,245.427 222.894,245.351 222.771 C 245.176 222.487,253.211 219.067,253.554 219.279 C 253.712 219.376,253.762 219.354,253.681 219.223 C 253.509 218.946,254.684 218.450,255.020 218.658 C 255.169 218.750,255.219 218.727,255.142 218.603 C 255.065 218.479,257.004 217.543,259.810 216.351 C 262.449 215.229,264.501 214.245,264.370 214.164 C 264.208 214.063,264.242 213.974,264.479 213.883 C 265.000 213.683,265.000 213.684,265.000 214.640 L 265.000 215.530 280.677 218.738 C 289.299 220.503,296.568 222.023,296.829 222.117 C 297.293 222.282,297.303 222.346,297.246 224.830 L 297.188 227.374 295.477 228.114 C 292.836 229.257,292.858 229.413,295.729 229.911 C 297.391 230.198,297.292 229.857,297.292 235.308 C 297.292 238.385,297.370 240.232,297.503 240.315 C 297.814 240.507,320.787 245.211,321.319 245.192 C 321.567 245.183,321.654 245.128,321.510 245.070 C 321.304 244.987,321.249 239.782,321.247 220.035 C 321.246 206.323,321.192 194.908,321.127 194.667 C 321.022 194.277,320.404 194.106,315.245 193.043 C 297.977 189.484,294.981 188.868,291.406 188.143 L 287.500 187.350 287.500 194.504 L 287.500 201.657 286.964 202.008 C 286.385 202.388,286.452 202.399,274.479 199.898 C 272.646 199.515,268.099 198.577,264.375 197.813 C 259.514 196.817,257.528 196.327,257.335 196.077 C 257.122 195.803,257.078 194.087,257.126 188.032 C 257.160 183.799,257.155 180.504,257.116 180.711 C 257.061 180.998,256.914 181.059,256.491 180.970 C 256.187 180.906,249.281 179.485,241.146 177.812 C 233.010 176.139,226.096 174.716,225.780 174.650 L 225.206 174.531 225.259 190.947 M287.500 182.274 L 287.500 185.347 291.302 186.122 C 293.393 186.548,300.542 188.014,307.188 189.380 C 321.520 192.325,320.294 192.137,320.378 191.406 C 320.425 191.002,320.563 190.833,320.847 190.833 C 321.434 190.833,321.471 186.346,320.885 186.167 C 320.685 186.105,313.396 184.594,304.688 182.808 C 295.979 181.022,288.549 179.479,288.177 179.380 L 287.500 179.200 287.500 182.274 M8.542 181.734 C 8.542 183.846,8.586 184.151,8.906 184.242 C 9.292 184.352,11.555 184.812,12.083 184.888 C 12.269 184.915,12.422 185.201,12.461 185.592 C 12.497 185.954,12.558 186.250,12.597 186.250 C 12.763 186.250,40.129 191.896,40.365 191.979 C 40.566 192.049,40.625 191.333,40.625 188.835 C 40.625 186.764,40.551 185.646,40.420 185.727 C 40.268 185.821,12.102 180.185,9.010 179.442 C 8.545 179.331,8.542 179.346,8.542 181.734 M184.879 183.778 C 184.778 183.941,184.931 183.985,185.376 183.920 C 185.754 183.864,185.969 183.908,185.897 184.024 C 185.825 184.141,186.044 184.183,186.429 184.127 C 186.789 184.074,187.083 184.119,187.083 184.227 C 187.083 184.335,187.314 184.379,187.597 184.325 C 187.879 184.271,188.137 184.292,188.170 184.371 C 188.202 184.450,189.565 184.777,191.198 185.097 L 194.167 185.681 194.167 186.556 L 194.167 187.431 190.260 186.630 C 188.112 186.189,185.862 185.729,185.260 185.608 C 184.078 185.369,183.537 183.945,184.531 183.685 C 184.732 183.633,184.925 183.579,184.960 183.566 C 184.996 183.553,184.959 183.648,184.879 183.778 M187.963 189.427 C 188.019 192.327,188.032 192.397,188.490 192.462 C 189.091 192.548,189.093 192.537,188.214 193.983 C 187.284 195.514,187.330 195.522,186.402 193.646 L 185.628 192.083 186.148 192.083 L 186.667 192.083 186.667 189.271 L 186.667 186.458 187.286 186.458 L 187.905 186.458 187.963 189.427 M191.475 187.292 C 191.582 187.292,191.667 188.574,191.667 190.204 L 191.667 193.117 192.188 193.248 C 192.835 193.410,192.839 193.367,192.071 194.710 C 191.191 196.248,191.149 196.245,190.319 194.597 C 189.442 192.856,189.450 192.917,190.104 192.917 L 190.625 192.917 190.625 189.978 C 190.625 187.383,190.664 187.054,190.955 187.165 C 191.136 187.235,191.370 187.292,191.475 187.292 M8.542 212.923 C 8.542 233.072,8.596 238.366,8.802 238.442 C 9.165 238.574,39.413 244.774,40.024 244.841 L 40.521 244.896 40.625 238.854 L 40.729 232.813 41.250 232.762 C 41.536 232.733,48.099 234.028,55.833 235.637 C 63.568 237.247,70.107 238.583,70.365 238.605 L 70.833 238.646 70.837 244.688 C 70.838 248.010,70.909 250.825,70.993 250.943 C 71.214 251.252,85.380 254.379,89.856 255.107 C 90.221 255.167,93.615 255.867,97.396 256.663 C 104.663 258.194,105.247 258.289,104.833 257.875 C 104.642 257.683,104.583 251.738,104.583 232.384 L 104.583 207.143 102.031 206.626 C 80.456 202.260,71.323 200.313,71.094 200.032 C 70.884 199.775,70.833 201.181,70.833 207.217 L 70.833 214.721 70.338 214.986 C 69.815 215.266,41.496 209.630,40.888 209.125 C 40.685 208.957,40.625 207.183,40.625 201.381 L 40.624 193.854 40.052 193.812 C 39.737 193.788,32.616 192.359,24.227 190.635 C 15.838 188.911,8.877 187.500,8.758 187.500 C 8.610 187.500,8.542 195.491,8.542 212.923 M70.848 195.304 C 70.854 197.248,70.935 198.715,71.028 198.564 C 71.167 198.339,100.961 204.187,103.367 204.912 C 103.620 204.988,103.751 204.846,103.852 204.383 C 103.940 203.986,104.121 203.750,104.339 203.750 C 104.650 203.751,104.676 203.500,104.583 201.407 L 104.479 199.063 96.771 197.479 C 92.531 196.607,85.031 195.069,80.104 194.060 C 75.177 193.051,71.077 192.123,70.992 191.998 C 70.907 191.873,70.843 193.361,70.848 195.304 M313.958 231.337 C 315.620 231.645,317.612 232.041,318.385 232.216 L 319.792 232.533 319.792 233.350 C 319.792 233.799,319.721 234.168,319.635 234.169 C 319.549 234.170,317.299 233.729,314.635 233.188 L 309.792 232.204 309.792 231.391 C 309.792 230.619,309.820 230.583,310.365 230.677 C 310.680 230.732,312.297 231.029,313.958 231.337 M134.167 233.736 C 134.167 236.300,133.984 236.048,136.146 236.458 C 138.126 236.834,138.125 236.833,138.125 237.581 L 138.125 238.258 151.615 241.016 C 159.034 242.533,165.362 243.858,165.677 243.960 L 166.250 244.145 166.250 240.979 L 166.249 237.813 165.677 237.781 C 165.362 237.764,158.227 236.335,149.821 234.604 C 141.416 232.874,134.455 231.458,134.353 231.458 C 134.250 231.458,134.167 232.483,134.167 233.736 M56.269 235.007 C 64.096 236.615,70.544 237.974,70.597 238.028 C 70.959 238.390,69.588 238.171,62.578 236.748 C 58.238 235.867,51.611 234.526,47.852 233.767 C 44.092 233.007,41.085 232.318,41.168 232.235 C 41.435 231.968,41.810 232.037,56.269 235.007 M313.073 233.256 C 313.530 233.379,313.542 233.452,313.542 236.257 L 313.542 239.132 314.065 239.306 L 314.588 239.481 313.818 240.782 C 312.867 242.389,312.958 242.403,312.025 240.517 C 311.205 238.860,311.115 238.542,311.471 238.542 C 311.592 238.542,311.633 238.635,311.563 238.750 C 311.492 238.865,311.627 238.958,311.863 238.958 C 312.275 238.958,312.292 238.847,312.292 236.042 C 312.292 234.438,312.362 233.126,312.448 233.128 C 312.534 233.129,312.815 233.187,313.073 233.256 M317.245 237.031 C 317.287 239.198,317.372 240.001,317.558 240.003 C 318.379 240.013,318.392 240.371,317.618 241.645 C 317.193 242.344,316.806 242.917,316.758 242.917 C 316.439 242.917,315.045 239.610,315.320 239.505 C 315.488 239.441,315.625 239.479,315.625 239.590 C 315.625 239.701,315.766 239.792,315.938 239.792 C 316.200 239.792,316.250 239.327,316.250 236.861 C 316.250 233.940,316.252 233.930,316.719 233.996 C 317.177 234.061,317.189 234.131,317.245 237.031 M134.167 264.919 L 134.167 290.409 134.635 290.526 C 136.610 291.018,166.074 296.982,166.151 296.904 C 166.205 296.850,166.250 294.150,166.250 290.905 C 166.250 284.490,166.307 284.167,167.440 284.167 C 168.071 284.167,195.405 289.756,195.938 289.994 C 197.106 290.516,194.175 289.992,181.341 287.388 C 173.698 285.837,167.355 284.597,167.246 284.633 C 167.137 284.670,173.407 285.995,181.180 287.578 C 188.953 289.161,195.428 290.552,195.570 290.668 C 195.712 290.785,195.970 290.826,196.143 290.759 C 196.420 290.653,196.458 291.370,196.458 296.656 C 196.458 303.151,196.478 303.333,197.179 303.333 C 197.436 303.333,197.918 303.426,198.250 303.540 C 198.854 303.747,230.103 310.208,230.499 310.208 C 230.617 310.208,230.599 310.099,230.458 309.958 C 230.267 309.767,230.208 303.815,230.208 284.438 C 230.208 270.539,230.184 259.167,230.153 259.167 C 229.365 259.167,196.760 252.237,196.637 252.043 C 196.542 251.893,196.463 255.120,196.462 259.214 L 196.458 266.657 195.976 266.973 C 195.512 267.277,168.301 261.963,166.719 261.259 L 166.250 261.051 166.250 253.487 L 166.250 245.924 165.781 245.884 C 165.411 245.852,151.320 242.978,135.990 239.806 L 134.167 239.429 134.167 264.919 M98.125 244.370 C 103.131 245.304,103.214 245.335,103.294 246.302 C 103.329 246.732,103.283 247.084,103.190 247.086 C 103.097 247.087,100.841 246.645,98.177 246.104 L 93.333 245.120 93.333 244.307 C 93.333 243.536,93.362 243.499,93.906 243.592 C 94.221 243.646,96.120 243.996,98.125 244.370 M196.488 247.083 C 196.490 249.089,196.532 250.630,196.583 250.510 C 196.641 250.371,202.511 251.491,212.660 253.577 C 230.608 257.266,229.322 257.054,229.498 256.354 C 229.571 256.063,229.779 255.834,229.971 255.834 C 230.271 255.834,230.305 255.550,230.248 253.474 L 230.184 251.113 213.506 247.692 C 198.802 244.676,196.808 244.222,196.657 243.854 C 196.557 243.613,196.486 244.975,196.488 247.083 M96.829 249.115 C 96.871 251.281,96.955 252.084,97.141 252.087 C 97.962 252.097,97.975 252.454,97.201 253.728 C 96.776 254.428,96.389 255.000,96.341 255.000 C 96.161 255.000,94.609 251.710,94.732 251.587 C 94.943 251.377,95.244 251.441,95.104 251.667 C 95.033 251.781,95.168 251.875,95.404 251.875 C 95.817 251.875,95.833 251.764,95.833 248.944 C 95.833 246.023,95.835 246.013,96.302 246.079 C 96.760 246.144,96.772 246.215,96.829 249.115 M100.628 249.427 C 100.631 252.437,100.702 252.785,101.365 253.038 L 101.867 253.229 101.008 254.570 L 100.148 255.912 99.328 254.281 C 98.684 253.001,98.567 252.613,98.785 252.478 C 98.942 252.380,99.093 252.393,99.132 252.507 C 99.411 253.318,99.583 252.284,99.583 249.792 L 99.583 246.875 100.104 246.875 L 100.625 246.875 100.628 249.427 M219.254 295.445 C 219.153 295.608,219.306 295.652,219.751 295.587 C 220.105 295.535,220.359 295.550,220.315 295.621 C 220.271 295.692,222.144 296.112,224.477 296.555 C 228.250 297.270,228.732 297.407,228.836 297.794 C 228.978 298.322,228.994 299.167,228.863 299.167 C 228.766 299.167,220.029 297.373,219.269 297.197 C 218.821 297.094,218.756 295.208,219.200 295.208 C 219.310 295.208,219.334 295.315,219.254 295.445 M222.500 301.146 C 222.500 303.997,222.523 304.167,222.904 304.167 C 223.595 304.167,223.571 304.504,222.790 305.816 C 221.867 307.365,222.040 307.403,221.053 305.439 C 220.279 303.899,220.252 303.787,220.634 303.687 C 220.858 303.629,221.042 303.671,221.042 303.782 C 221.042 303.892,221.135 303.925,221.250 303.854 C 221.372 303.779,221.458 302.567,221.458 300.925 L 221.458 298.125 221.979 298.125 L 222.500 298.125 222.500 301.146 M226.323 300.365 C 226.396 301.138,226.456 302.497,226.457 303.385 C 226.458 304.861,226.494 305.000,226.875 305.000 C 227.459 305.000,227.401 305.286,226.529 306.722 L 225.766 307.979 224.976 306.437 C 224.030 304.590,224.030 304.583,224.688 304.583 L 225.208 304.583 225.208 301.771 L 225.208 298.958 225.699 298.958 C 226.153 298.958,226.200 299.064,226.323 300.365 " stroke="none" fill="#7b5b3b" fill-rule="evenodd"></path><path id="path4" d="M199.167 96.146 C 198.307 96.526,197.502 96.930,197.377 97.042 C 197.252 97.154,194.346 98.439,190.919 99.897 C 187.492 101.356,182.672 103.408,180.208 104.459 C 177.745 105.509,165.914 110.537,153.918 115.632 C 138.884 122.017,132.281 124.916,132.668 124.960 C 132.977 124.995,135.854 125.530,139.063 126.149 C 148.512 127.971,160.748 130.208,161.269 130.208 C 161.534 130.208,163.162 129.604,164.886 128.865 C 168.483 127.324,178.717 122.971,189.896 118.228 C 194.135 116.430,199.198 114.273,201.146 113.436 C 203.094 112.599,206.516 111.146,208.750 110.206 C 210.984 109.267,213.188 108.331,213.646 108.127 C 214.104 107.923,216.964 106.703,220.000 105.417 C 223.036 104.130,226.224 102.773,227.083 102.400 C 227.943 102.027,228.957 101.654,229.338 101.570 C 230.346 101.349,230.484 101.386,222.748 99.797 C 218.831 98.992,212.431 97.677,208.527 96.875 C 200.347 95.194,201.170 95.258,199.167 96.146 M261.250 111.146 C 260.620 111.429,254.010 114.248,246.563 117.412 C 239.115 120.575,224.663 126.715,214.447 131.056 L 195.873 138.948 186.237 136.968 C 180.938 135.878,176.511 135.017,176.400 135.054 C 176.289 135.091,180.690 136.042,186.180 137.167 L 196.163 139.212 212.821 132.129 C 221.983 128.234,232.292 123.853,235.729 122.394 C 239.167 120.935,246.479 117.824,251.979 115.482 C 257.479 113.139,262.143 111.209,262.344 111.192 C 262.544 111.175,262.708 111.041,262.708 110.893 C 262.708 110.530,262.575 110.553,261.250 111.146 M258.612 117.808 C 258.452 118.291,257.202 118.875,247.393 123.052 C 219.173 135.070,212.014 138.124,203.958 141.581 C 195.894 145.041,195.228 145.290,194.063 145.281 C 192.812 145.273,193.232 145.572,194.583 145.653 C 194.870 145.670,200.589 143.337,207.292 140.468 C 213.995 137.599,226.135 132.419,234.271 128.957 C 242.406 125.495,251.216 121.744,253.847 120.623 C 258.196 118.770,258.647 118.531,258.788 118.000 C 258.989 117.249,258.850 117.097,258.612 117.808 M260.521 119.511 C 259.604 119.914,253.885 122.355,247.813 124.937 C 241.740 127.519,234.286 130.687,231.250 131.978 C 228.214 133.269,223.151 135.425,220.000 136.768 C 211.031 140.591,202.264 144.313,198.919 145.718 L 195.859 147.003 192.044 146.215 C 189.946 145.781,188.089 145.450,187.917 145.479 C 187.745 145.507,189.533 145.923,191.890 146.403 L 196.175 147.275 202.827 144.447 C 206.486 142.891,213.510 139.903,218.438 137.807 C 251.181 123.877,262.314 119.167,262.499 119.167 C 262.614 119.167,262.708 119.073,262.708 118.958 C 262.708 118.627,262.298 118.730,260.521 119.511 M99.392 119.241 C 99.551 119.416,105.654 120.650,105.920 120.561 C 106.033 120.524,104.818 120.234,103.219 119.919 C 101.621 119.603,100.078 119.291,99.792 119.226 C 99.505 119.161,99.325 119.168,99.392 119.241 M107.309 120.917 C 107.457 121.059,113.990 122.329,114.085 122.234 C 114.134 122.185,112.696 121.850,110.889 121.489 C 107.608 120.834,107.146 120.760,107.309 120.917 M115.434 122.583 C 115.583 122.725,121.073 123.788,121.168 123.693 C 121.218 123.643,120.014 123.354,118.494 123.051 C 115.718 122.497,115.273 122.429,115.434 122.583 M122.517 124.042 C 122.666 124.184,129.199 125.454,129.293 125.359 C 129.343 125.310,127.905 124.975,126.098 124.614 C 122.816 123.959,122.354 123.885,122.517 124.042 M130.375 125.688 C 130.907 125.812,131.345 125.820,131.455 125.709 C 131.564 125.598,131.199 125.512,130.559 125.500 L 129.479 125.478 130.375 125.688 M103.767 126.958 C 103.915 127.100,111.491 128.579,111.585 128.484 C 111.665 128.404,104.334 126.875,103.872 126.875 C 103.766 126.875,103.720 126.913,103.767 126.958 M99.275 127.285 C 99.189 127.424,102.086 127.983,102.217 127.852 C 102.257 127.812,101.631 127.637,100.825 127.464 C 100.018 127.291,99.321 127.210,99.275 127.285 M102.517 128.000 C 102.665 128.142,110.241 129.621,110.335 129.526 C 110.415 129.446,103.084 127.916,102.622 127.917 C 102.516 127.917,102.470 127.954,102.517 128.000 M111.979 128.659 C 112.454 128.852,125.508 131.463,125.691 131.401 C 125.801 131.365,122.808 130.706,119.039 129.936 C 112.843 128.672,111.339 128.400,111.979 128.659 M110.642 129.667 C 110.790 129.809,118.366 131.287,118.460 131.193 C 118.540 131.113,111.209 129.583,110.747 129.583 C 110.641 129.583,110.595 129.621,110.642 129.667 M118.767 131.333 C 118.916 131.475,125.449 132.746,125.543 132.651 C 125.593 132.602,124.155 132.266,122.348 131.906 C 119.066 131.251,118.604 131.177,118.767 131.333 M126.059 131.541 C 126.107 131.587,127.177 131.827,128.438 132.075 C 129.698 132.324,130.917 132.579,131.146 132.643 C 131.375 132.708,131.496 132.690,131.414 132.603 C 131.333 132.517,130.208 132.228,128.914 131.961 C 126.597 131.483,125.888 131.379,126.059 131.541 M162.179 131.889 C 162.103 132.011,162.074 132.142,162.115 132.180 C 162.256 132.314,167.746 133.365,167.836 133.275 C 167.886 133.225,167.104 133.022,166.099 132.825 C 162.706 132.158,162.288 132.049,162.407 131.857 C 162.472 131.753,162.478 131.667,162.420 131.667 C 162.363 131.667,162.254 131.767,162.179 131.889 M125.851 132.791 C 125.898 132.837,126.969 133.078,128.229 133.328 C 129.490 133.578,130.755 133.836,131.042 133.900 C 131.328 133.964,131.509 133.958,131.443 133.885 C 131.377 133.812,130.168 133.518,128.758 133.231 C 126.210 132.712,125.684 132.632,125.851 132.791 M169.184 133.625 C 169.333 133.767,174.823 134.829,174.918 134.734 C 174.968 134.685,173.764 134.396,172.244 134.093 C 169.468 133.539,169.023 133.471,169.184 133.625 M162.010 138.893 C 161.461 139.441,162.044 140.446,162.882 140.396 C 163.077 140.384,163.001 140.312,162.708 140.231 C 161.807 139.983,161.843 138.923,162.747 139.095 C 163.543 139.247,163.496 139.081,162.687 138.887 C 162.389 138.816,162.084 138.818,162.010 138.893 M163.646 139.284 C 164.137 139.482,192.377 145.215,192.560 145.153 C 192.769 145.084,164.018 139.144,163.646 139.180 C 163.507 139.193,163.507 139.228,163.646 139.284 M163.351 140.494 C 163.509 140.634,171.071 142.123,171.162 142.032 C 171.245 141.950,163.881 140.402,163.455 140.412 C 163.350 140.415,163.303 140.451,163.351 140.494 M171.476 142.167 C 171.623 142.309,179.199 143.787,179.294 143.693 C 179.374 143.613,172.042 142.083,171.580 142.083 C 171.475 142.083,171.428 142.121,171.476 142.167 M326.042 142.436 C 325.870 142.497,324.698 143.045,323.438 143.653 C 322.177 144.261,317.068 146.492,312.083 148.610 C 304.072 152.014,286.271 159.581,271.250 165.968 C 268.443 167.162,264.338 168.908,262.129 169.850 C 259.261 171.071,258.218 171.603,258.483 171.710 C 258.842 171.854,264.887 173.057,269.792 173.960 C 271.109 174.203,273.359 174.622,274.792 174.891 C 276.224 175.160,279.582 175.778,282.254 176.264 L 287.112 177.148 290.796 175.568 C 292.822 174.699,296.120 173.291,298.125 172.440 C 300.130 171.588,305.193 169.434,309.375 167.654 C 313.557 165.873,319.792 163.224,323.229 161.768 C 326.667 160.311,330.510 158.672,331.771 158.125 C 333.031 157.579,335.516 156.518,337.292 155.768 C 344.535 152.711,347.659 151.379,348.685 150.910 C 349.279 150.639,349.815 150.417,349.876 150.417 C 349.938 150.417,350.524 150.171,351.180 149.871 C 353.005 149.037,354.960 148.333,355.456 148.333 C 356.561 148.333,354.849 147.949,341.544 145.209 C 327.916 142.402,326.730 142.190,326.042 142.436 M179.601 143.833 C 179.749 143.975,186.282 145.246,186.377 145.151 C 186.426 145.102,184.988 144.766,183.181 144.406 C 179.900 143.751,179.437 143.677,179.601 143.833 M108.328 156.018 C 107.352 156.449,106.425 156.760,106.268 156.707 C 106.097 156.650,106.041 156.706,106.129 156.848 C 106.209 156.977,106.181 157.083,106.067 157.083 C 105.953 157.083,103.580 158.057,100.794 159.246 C 95.098 161.679,59.003 177.024,48.392 181.524 C 44.586 183.138,41.499 184.485,41.532 184.518 C 41.676 184.662,49.642 186.198,63.528 188.759 L 70.493 190.044 74.257 188.434 C 76.327 187.549,79.005 186.407,80.208 185.898 C 81.411 185.388,82.677 184.846,83.021 184.693 C 83.365 184.541,86.458 183.226,89.896 181.771 C 93.333 180.317,98.068 178.305,100.417 177.300 C 102.766 176.295,106.516 174.702,108.750 173.760 C 110.984 172.817,113.422 171.779,114.167 171.452 C 114.911 171.125,119.646 169.107,124.688 166.968 C 129.729 164.829,134.510 162.790,135.313 162.438 C 136.115 162.086,137.238 161.642,137.809 161.451 L 138.848 161.105 137.289 160.763 C 134.768 160.209,110.326 155.207,110.210 155.221 C 110.152 155.228,109.305 155.587,108.328 156.018 M382.813 159.686 C 380.063 160.864,372.188 164.220,365.313 167.144 C 358.438 170.067,345.828 175.430,337.292 179.062 C 328.755 182.693,321.583 185.665,321.354 185.665 C 321.125 185.666,313.818 184.202,305.115 182.413 C 296.413 180.623,289.195 179.200,289.074 179.251 C 288.937 179.308,288.946 179.348,289.099 179.359 C 289.233 179.368,296.636 180.874,305.550 182.706 L 321.757 186.038 328.326 183.249 C 331.939 181.715,339.021 178.705,344.063 176.560 C 378.851 161.757,387.929 157.917,388.133 157.917 C 388.243 157.917,388.333 157.823,388.333 157.708 C 388.333 157.348,387.931 157.492,382.813 159.686 M384.268 164.626 C 384.155 165.077,382.375 165.886,368.789 171.665 C 360.346 175.257,350.531 179.435,346.979 180.950 C 343.427 182.465,335.979 185.640,330.428 188.006 L 320.335 192.307 309.529 190.091 C 303.585 188.872,298.682 187.915,298.633 187.964 C 298.553 188.044,320.062 192.511,320.487 192.503 C 320.583 192.501,325.692 190.354,331.841 187.731 C 337.990 185.107,348.224 180.745,354.583 178.036 C 386.452 164.461,384.329 165.401,384.443 164.811 C 384.577 164.112,384.434 163.961,384.268 164.626 M225.231 165.910 C 225.039 166.142,225.157 166.222,225.858 166.334 C 226.924 166.504,227.178 166.353,226.150 166.160 C 225.740 166.083,225.460 165.932,225.527 165.823 C 225.712 165.523,225.500 165.586,225.231 165.910 M387.292 165.819 C 387.001 165.987,383.758 167.372,359.688 177.605 C 354.760 179.699,344.167 184.205,336.146 187.617 L 321.563 193.820 318.164 193.139 C 316.294 192.764,314.724 192.499,314.673 192.549 C 314.623 192.599,316.198 192.969,318.174 193.370 L 321.765 194.099 329.581 190.779 C 333.879 188.953,339.552 186.541,342.188 185.419 C 344.823 184.297,350.073 182.065,353.854 180.459 C 357.635 178.852,366.823 174.941,374.271 171.767 C 381.719 168.593,387.930 165.990,388.073 165.984 C 388.216 165.977,388.333 165.894,388.333 165.799 C 388.333 165.574,387.693 165.586,387.292 165.819 M227.101 166.542 C 227.249 166.684,233.782 167.954,233.877 167.859 C 233.926 167.810,232.488 167.475,230.681 167.114 C 227.400 166.459,226.937 166.385,227.101 166.542 M235.226 168.208 C 235.374 168.350,241.907 169.621,242.002 169.526 C 242.051 169.477,240.613 169.141,238.806 168.781 C 235.525 168.126,235.062 168.052,235.226 168.208 M242.309 169.667 C 242.457 169.809,248.990 171.079,249.085 170.984 C 249.134 170.935,247.696 170.600,245.889 170.239 C 242.608 169.584,242.146 169.510,242.309 169.667 M165.208 173.003 C 136.119 185.462,105.163 198.542,104.765 198.542 C 104.534 198.542,99.085 197.461,92.656 196.141 C 86.228 194.820,80.868 193.782,80.745 193.833 C 80.597 193.894,80.603 193.931,80.762 193.942 C 80.895 193.951,86.446 195.076,93.099 196.442 L 105.194 198.926 121.608 191.946 C 137.928 185.005,154.679 177.884,165.625 173.235 C 171.013 170.947,172.181 170.386,171.448 170.438 C 171.282 170.450,168.474 171.605,165.208 173.003 M249.392 171.118 C 249.552 171.258,256.071 172.540,256.162 172.450 C 256.211 172.400,254.774 172.061,252.969 171.696 C 249.786 171.051,249.210 170.958,249.392 171.118 M228.750 173.547 C 228.750 173.659,228.826 173.750,228.919 173.750 C 229.012 173.750,231.136 174.175,233.640 174.694 C 236.144 175.212,238.285 175.606,238.398 175.569 C 238.511 175.531,236.597 175.093,234.145 174.594 C 231.693 174.096,229.477 173.611,229.219 173.516 C 228.935 173.412,228.750 173.424,228.750 173.547 M227.496 174.710 C 228.811 174.986,229.979 175.181,230.091 175.143 C 230.327 175.065,225.884 174.156,225.417 174.187 C 225.245 174.199,226.180 174.434,227.496 174.710 M230.434 175.292 C 230.582 175.434,237.115 176.704,237.210 176.609 C 237.259 176.560,235.821 176.225,234.014 175.864 C 230.733 175.209,230.271 175.135,230.434 175.292 M239.809 175.917 C 239.957 176.059,246.490 177.329,246.585 177.234 C 246.634 177.185,245.196 176.850,243.389 176.489 C 240.108 175.834,239.646 175.760,239.809 175.917 M238.559 176.958 C 238.707 177.100,245.240 178.371,245.335 178.276 C 245.384 178.227,243.946 177.891,242.139 177.531 C 238.858 176.876,238.396 176.802,238.559 176.958 M246.979 177.408 C 247.514 177.621,257.097 179.516,256.945 179.378 C 256.849 179.292,254.615 178.786,251.979 178.254 C 247.646 177.378,246.359 177.160,246.979 177.408 M155.208 183.255 C 143.047 188.456,136.144 191.400,114.521 200.605 L 103.729 205.200 90.056 202.387 C 82.536 200.840,76.295 199.603,76.188 199.639 C 76.081 199.674,82.276 200.997,89.956 202.578 L 103.919 205.452 107.324 203.999 C 112.641 201.729,135.107 192.155,146.042 187.500 C 165.470 179.229,167.607 178.307,167.802 178.113 C 168.204 177.714,167.374 178.053,155.208 183.255 M171.305 178.254 C 171.371 178.361,164.612 181.345,156.286 184.886 C 147.959 188.427,138.193 192.580,134.583 194.115 C 130.974 195.651,122.821 199.114,116.465 201.811 L 104.908 206.716 101.610 206.043 C 99.795 205.673,98.267 205.413,98.214 205.467 C 98.160 205.520,99.407 205.817,100.985 206.125 C 102.563 206.434,104.112 206.771,104.427 206.874 C 104.917 207.034,105.930 206.666,111.406 204.340 C 114.930 202.843,119.313 200.986,121.146 200.213 C 124.148 198.947,152.838 186.742,166.248 181.026 C 171.435 178.815,171.953 178.535,171.437 178.216 C 171.299 178.131,171.240 178.148,171.305 178.254 M246.684 178.625 C 246.833 178.767,252.323 179.829,252.418 179.734 C 252.468 179.685,251.264 179.396,249.744 179.093 C 246.968 178.539,246.523 178.471,246.684 178.625 M8.333 178.987 C 8.333 179.086,8.568 179.167,8.854 179.167 C 9.141 179.167,9.375 179.131,9.375 179.087 C 9.375 179.043,9.141 178.962,8.854 178.907 C 8.568 178.853,8.333 178.889,8.333 178.987 M287.708 178.987 C 287.708 179.086,287.943 179.167,288.229 179.167 C 288.516 179.167,288.750 179.131,288.750 179.087 C 288.750 179.043,288.516 178.962,288.229 178.907 C 287.943 178.853,287.708 178.889,287.708 178.987 M11.684 179.667 C 11.832 179.809,18.365 181.079,18.460 180.984 C 18.509 180.935,17.071 180.600,15.264 180.239 C 11.983 179.584,11.521 179.510,11.684 179.667 M253.125 180.000 C 253.411 180.092,253.880 180.165,254.167 180.163 C 254.634 180.159,254.624 180.143,254.063 180.000 C 253.181 179.776,252.425 179.776,253.125 180.000 M255.208 180.387 C 256.070 180.668,257.222 180.846,256.875 180.645 C 256.703 180.545,256.141 180.408,255.625 180.340 C 255.010 180.259,254.867 180.275,255.208 180.387 M18.767 181.125 C 18.916 181.267,24.407 182.329,24.502 182.234 C 24.551 182.185,23.348 181.896,21.827 181.593 C 19.051 181.039,18.607 180.971,18.767 181.125 M26.892 182.792 C 27.041 182.934,33.574 184.204,33.668 184.109 C 33.718 184.060,32.280 183.725,30.473 183.364 C 27.191 182.709,26.729 182.635,26.892 182.792 M34.063 184.285 C 34.964 184.657,40.343 185.561,40.521 185.371 C 40.660 185.222,40.659 185.186,40.519 185.263 C 40.403 185.327,38.997 185.110,37.394 184.782 C 34.756 184.241,33.502 184.055,34.063 184.285 M287.500 185.846 C 287.500 185.967,287.585 186.014,287.688 185.950 C 287.791 185.886,288.595 185.983,289.475 186.165 C 290.354 186.347,291.116 186.454,291.167 186.402 C 291.247 186.322,288.095 185.624,287.656 185.625 C 287.570 185.625,287.500 185.724,287.500 185.846 M12.083 186.442 C 12.083 186.596,31.023 190.505,31.150 190.378 C 31.198 190.330,27.889 189.605,23.796 188.768 C 19.703 187.931,15.393 187.036,14.219 186.779 C 13.044 186.522,12.083 186.371,12.083 186.442 M287.500 186.656 C 287.500 187.046,291.700 188.162,292.007 187.854 C 292.061 187.800,291.196 187.585,290.086 187.376 C 288.976 187.167,287.940 186.868,287.784 186.712 C 287.613 186.541,287.500 186.519,287.500 186.656 M291.476 186.542 C 291.624 186.684,298.157 187.954,298.252 187.859 C 298.301 187.810,296.863 187.475,295.056 187.114 C 291.775 186.459,291.312 186.385,291.476 186.542 M11.037 187.626 C 12.353 187.902,13.521 188.097,13.632 188.060 C 13.868 187.981,9.426 187.073,8.958 187.104 C 8.786 187.115,9.722 187.351,11.037 187.626 M292.396 188.035 C 292.869 188.228,306.965 191.046,307.150 190.985 C 307.261 190.948,304.033 190.241,299.978 189.415 C 293.307 188.055,291.754 187.772,292.396 188.035 M13.976 188.208 C 14.124 188.350,20.657 189.621,20.752 189.526 C 20.801 189.477,19.363 189.141,17.556 188.781 C 14.275 188.126,13.812 188.052,13.976 188.208 M21.059 189.667 C 21.207 189.809,28.782 191.287,28.877 191.193 C 28.957 191.113,21.625 189.583,21.163 189.583 C 21.058 189.583,21.011 189.621,21.059 189.667 M31.458 190.487 C 31.458 190.526,33.474 190.969,35.938 191.473 C 40.412 192.387,40.417 192.389,40.417 192.940 L 40.417 193.491 39.025 193.199 C 38.259 193.039,37.536 192.939,37.418 192.979 C 37.301 193.018,37.935 193.195,38.827 193.373 C 40.580 193.722,40.732 193.663,40.589 192.683 C 40.517 192.188,31.458 190.009,31.458 190.487 M307.517 191.125 C 307.666 191.267,314.199 192.537,314.293 192.443 C 314.343 192.393,312.905 192.058,311.098 191.697 C 307.816 191.042,307.354 190.968,307.517 191.125 M30.226 191.542 C 30.374 191.684,36.907 192.954,37.002 192.859 C 37.051 192.810,35.613 192.475,33.806 192.114 C 30.525 191.459,30.062 191.385,30.226 191.542 M71.166 191.635 C 71.085 191.766,71.350 191.938,71.817 192.059 C 73.371 192.461,80.248 193.780,80.335 193.693 C 80.384 193.644,78.430 193.205,75.993 192.719 C 73.556 192.232,71.504 191.739,71.432 191.624 C 71.346 191.485,71.256 191.489,71.166 191.635 M171.667 204.208 C 171.609 210.132,171.634 214.908,171.721 214.821 C 171.808 214.734,171.855 209.887,171.825 204.050 L 171.771 193.438 171.667 204.208 M71.059 198.620 C 71.240 198.785,75.425 199.615,75.666 199.535 C 75.805 199.488,74.892 199.246,73.637 198.996 C 71.345 198.540,70.898 198.474,71.059 198.620 M71.056 199.863 C 71.216 200.039,74.383 200.687,74.502 200.568 C 74.554 200.516,74.007 200.360,73.288 200.222 C 72.568 200.083,71.745 199.917,71.458 199.852 C 71.172 199.786,70.991 199.792,71.056 199.863 M75.851 200.917 C 75.999 201.059,82.532 202.329,82.627 202.234 C 82.676 202.185,81.238 201.850,79.431 201.489 C 76.150 200.834,75.687 200.760,75.851 200.917 M82.934 202.375 C 83.082 202.517,89.615 203.787,89.710 203.693 C 89.759 203.643,88.321 203.308,86.514 202.947 C 83.233 202.292,82.771 202.218,82.934 202.375 M91.059 204.042 C 91.207 204.184,97.740 205.454,97.835 205.359 C 97.884 205.310,96.446 204.975,94.639 204.614 C 91.358 203.959,90.896 203.885,91.059 204.042 M233.958 208.039 C 232.984 208.443,231.906 208.901,231.563 209.058 C 230.876 209.371,226.719 211.141,200.729 222.190 C 191.104 226.282,179.551 231.195,175.055 233.108 L 166.880 236.586 168.701 236.942 C 169.702 237.137,173.802 237.912,177.813 238.662 C 187.600 240.494,188.724 240.703,192.668 241.428 L 196.065 242.052 198.709 240.947 C 201.127 239.937,206.506 237.649,214.063 234.418 C 218.353 232.584,227.451 228.715,233.750 226.047 C 236.786 224.760,240.536 223.161,242.083 222.493 C 243.630 221.825,246.161 220.747,247.708 220.097 C 249.255 219.447,250.802 218.790,251.146 218.638 C 251.490 218.485,253.693 217.545,256.042 216.549 C 258.391 215.553,260.710 214.553,261.195 214.326 C 261.681 214.100,262.613 213.749,263.267 213.547 C 264.148 213.274,264.351 213.146,264.051 213.052 C 263.455 212.867,236.229 207.290,235.959 207.299 C 235.833 207.303,234.932 207.636,233.958 208.039 M277.188 230.846 C 246.934 243.722,240.268 246.556,235.208 248.696 L 230.521 250.679 219.619 248.446 C 213.623 247.218,208.679 246.252,208.631 246.299 C 208.584 246.347,213.255 247.345,219.012 248.518 C 224.769 249.691,229.736 250.733,230.050 250.834 C 230.521 250.986,231.123 250.806,233.487 249.805 C 237.315 248.184,247.922 243.677,269.063 234.686 C 278.688 230.593,288.906 226.256,291.771 225.047 C 296.836 222.910,297.705 222.494,297.073 222.506 C 296.907 222.509,287.958 226.262,277.188 230.846 M285.729 233.210 C 277.907 236.549,263.157 242.831,248.750 248.958 C 244.109 250.931,237.875 253.585,234.896 254.854 C 231.917 256.124,229.292 257.147,229.063 257.127 C 228.833 257.108,221.569 255.634,212.919 253.853 C 204.270 252.071,197.073 250.640,196.927 250.671 C 196.781 250.703,204.060 252.248,213.103 254.105 L 229.543 257.481 241.178 252.514 C 253.046 247.446,264.544 242.550,282.917 234.739 C 292.407 230.704,293.987 229.993,293.427 230.004 C 293.318 230.006,289.854 231.449,285.729 233.210 M296.841 230.402 C 296.775 230.586,291.619 232.796,251.250 249.942 C 242.484 253.665,234.246 257.173,232.943 257.738 L 230.573 258.766 228.393 258.324 C 227.195 258.082,226.172 257.925,226.121 257.976 C 226.071 258.027,227.105 258.280,228.419 258.538 L 230.810 259.008 241.499 254.466 C 247.378 251.968,254.813 248.807,258.021 247.442 C 269.784 242.438,277.614 239.113,287.083 235.102 C 296.520 231.104,297.563 230.609,297.121 230.336 C 297.005 230.264,296.879 230.294,296.841 230.402 M134.270 230.835 C 134.199 230.950,134.263 231.085,134.414 231.135 C 135.069 231.351,137.125 231.694,137.217 231.602 C 137.273 231.546,136.660 231.383,135.854 231.239 C 135.049 231.095,134.439 230.898,134.499 230.801 C 134.559 230.704,134.561 230.625,134.504 230.625 C 134.446 230.625,134.341 230.719,134.270 230.835 M138.559 231.958 C 138.707 232.100,145.240 233.371,145.335 233.276 C 145.384 233.227,143.946 232.891,142.139 232.531 C 138.858 231.876,138.396 231.802,138.559 231.958 M41.668 232.226 C 41.669 232.404,67.057 237.595,67.206 237.447 C 67.253 237.400,65.581 237.013,63.489 236.587 C 52.100 234.266,42.352 232.256,42.031 232.162 C 41.831 232.103,41.667 232.132,41.668 232.226 M146.771 233.659 C 147.248 233.851,161.345 236.670,161.527 236.609 C 161.637 236.572,158.408 235.866,154.353 235.040 C 147.696 233.683,146.120 233.396,146.771 233.659 M161.979 236.784 C 162.845 237.137,166.067 237.626,166.183 237.422 C 166.257 237.293,166.252 237.245,166.173 237.315 C 166.094 237.385,165.212 237.272,164.213 237.063 C 162.537 236.713,161.479 236.581,161.979 236.784 M137.848 238.535 C 138.071 238.729,156.874 242.570,156.998 242.446 C 157.049 242.395,155.613 242.055,153.806 241.691 C 151.999 241.326,147.631 240.433,144.098 239.706 C 140.566 238.979,137.753 238.452,137.848 238.535 M135.851 239.458 C 135.999 239.600,141.490 240.663,141.585 240.568 C 141.635 240.518,140.431 240.229,138.910 239.926 C 136.134 239.372,135.690 239.304,135.851 239.458 M297.392 260.938 C 297.392 272.281,297.417 276.891,297.448 271.182 C 297.479 265.473,297.479 256.192,297.448 250.557 C 297.417 244.923,297.392 249.594,297.392 260.938 M143.021 240.951 C 143.496 241.144,164.667 245.424,164.848 245.363 C 165.052 245.295,143.393 240.814,143.021 240.848 C 142.882 240.860,142.882 240.894,143.021 240.951 M157.708 242.708 C 157.995 242.800,158.464 242.873,158.750 242.871 C 159.218 242.868,159.207 242.851,158.646 242.708 C 157.765 242.484,157.008 242.484,157.708 242.708 M159.392 243.000 C 159.541 243.142,165.032 244.204,165.127 244.109 C 165.176 244.060,163.973 243.771,162.452 243.468 C 159.676 242.914,159.232 242.846,159.392 243.000 M196.685 243.825 C 196.845 244.002,207.898 246.291,208.165 246.202 C 208.278 246.164,205.900 245.629,202.883 245.011 C 199.865 244.393,197.208 243.843,196.979 243.788 C 196.750 243.733,196.618 243.750,196.685 243.825 M166.058 244.933 C 166.047 245.232,165.881 245.419,165.573 245.478 L 165.104 245.568 165.579 245.597 C 166.073 245.626,166.368 245.210,166.182 244.746 C 166.123 244.599,166.067 244.684,166.058 244.933 M196.771 251.992 C 197.246 252.185,210.300 254.796,210.483 254.735 C 210.593 254.698,207.599 254.039,203.831 253.270 C 197.635 252.005,196.131 251.733,196.771 251.992 M210.938 254.909 C 211.415 255.101,225.512 257.920,225.694 257.859 C 225.804 257.822,222.575 257.116,218.520 256.290 C 211.863 254.933,210.287 254.646,210.938 254.909 M167.396 284.381 C 167.925 284.616,188.963 288.814,189.072 288.706 C 189.157 288.621,167.549 284.151,167.188 284.179 C 167.073 284.188,167.167 284.278,167.396 284.381 M189.392 288.833 C 189.541 288.975,195.032 290.038,195.127 289.943 C 195.176 289.893,193.973 289.604,192.452 289.301 C 189.676 288.747,189.232 288.679,189.392 288.833 " stroke="none" fill="#9e958c" fill-rule="evenodd"></path></g></svg>